<?xml version="1.0" encoding="UTF-8"?>
<!--
  OMNI OS — Construction grid (for brand book / reference only)
  Shows geometric construction, baseline grid, and clear-space envelope.
  NOT for production use. Reference for designers building derivative materials.
-->
<svg xmlns="http://www.w3.org/2000/svg" viewBox="0 0 280 280" role="img" aria-label="OMNI OS mark — geometric construction reference">
  <defs><style>
    .label { font-family: 'IBM Plex Mono', monospace; font-size: 9px; fill: #1F2421; opacity: 0.6; letter-spacing: 0.06em; }
  </style></defs>
  <rect x="20" y="20" width="240" height="240" fill="none" stroke="#1F2421" stroke-width="0.5" stroke-dasharray="3 3" opacity="0.35"/>
  <text x="24" y="32" class="label">CLEAR-SPACE ENVELOPE · 1× MARK-HEIGHT</text>
  <rect x="70" y="70" width="140" height="140" fill="none" stroke="#1F2421" stroke-width="0.5" opacity="0.45"/>
  <text x="74" y="220" class="label">MARK AREA · 140 × 140 UNITS</text>
  <circle cx="140" cy="140" r="52" fill="none" stroke="#0F4C5C" stroke-width="0.5" stroke-dasharray="2 2" opacity="0.55"/>
  <line x1="140" y1="88" x2="140" y2="192" stroke="#0F4C5C" stroke-width="0.4" opacity="0.3"/>
  <line x1="95" y1="114" x2="185" y2="166" stroke="#0F4C5C" stroke-width="0.4" opacity="0.3"/>
  <line x1="95" y1="166" x2="185" y2="114" stroke="#0F4C5C" stroke-width="0.4" opacity="0.3"/>
  <circle cx="140" cy="140" r="52" fill="none" stroke="#0F4C5C" stroke-width="2" opacity="0.35"/>
  <circle cx="140" cy="88" r="8" fill="#0F4C5C"/>
  <circle cx="185" cy="114" r="8" fill="#0F4C5C"/>
  <circle cx="185" cy="166" r="8" fill="#0F4C5C"/>
  <circle cx="140" cy="192" r="8" fill="#0F4C5C"/>
  <circle cx="95" cy="166" r="8" fill="#0F4C5C"/>
  <circle cx="95" cy="114" r="8" fill="#0F4C5C"/>
  <circle cx="140" cy="140" r="10" fill="#C03221"/>
  <text x="156" y="92" class="label">node · r=8</text>
  <text x="156" y="146" class="label">core · r=10</text>
  <text x="146" y="200" class="label">ring · r=52</text>
  <text x="20" y="252" class="label">6 NODES · 60° SPACING · STARTS TOP (12 O'CLOCK)</text>
  <text x="20" y="264" class="label">CORE (BRICK #C03221) = MISSION ANCHOR — IRREVOCABLE</text>
  <text x="20" y="276" class="label">RING NODES (PETROL #0F4C5C) = FEDERATED ATTESTED PEERS</text>
</svg>
