<?xml version="1.0" encoding="UTF-8"?>
<!--
  OMNI OS — Icon system v0.1
  Direction: C — Civic Tech / Generational
  Geometry:  24 × 24 viewBox · 1.5 stroke-width · stroke="currentColor" · fill="none"
             Round-cap, round-join. No fill states. No multi-color.
  Use:       <svg width="24" height="24"><use href="brand/icons/icons.svg#omni-mesh"/></svg>
-->
<svg xmlns="http://www.w3.org/2000/svg" width="0" height="0" style="position:absolute;width:0;height:0" aria-hidden="true">
  <defs><style>symbol { color: #1F2421; }</style></defs>

  <symbol id="omni-mesh" viewBox="0 0 24 24">
    <g stroke="currentColor" stroke-width="1.5" stroke-linecap="round" stroke-linejoin="round" fill="none">
      <circle cx="12" cy="3" r="1.6"/>
      <circle cx="20" cy="7.5" r="1.6"/>
      <circle cx="20" cy="16.5" r="1.6"/>
      <circle cx="12" cy="21" r="1.6"/>
      <circle cx="4" cy="16.5" r="1.6"/>
      <circle cx="4" cy="7.5" r="1.6"/>
      <line x1="12" y1="4.6" x2="12" y2="9"/>
      <line x1="13.4" y1="3.8" x2="18.6" y2="6.7"/>
      <line x1="18.6" y1="17.3" x2="13.4" y2="20.2"/>
      <line x1="10.6" y1="20.2" x2="5.4" y2="17.3"/>
      <line x1="5.4" y1="6.7" x2="10.6" y2="3.8"/>
    </g>
  </symbol>

  <symbol id="omni-node" viewBox="0 0 24 24">
    <g stroke="currentColor" stroke-width="1.5" stroke-linecap="round" stroke-linejoin="round" fill="none">
      <circle cx="12" cy="12" r="8"/>
      <circle cx="12" cy="12" r="3"/>
    </g>
  </symbol>

  <symbol id="omni-local-first" viewBox="0 0 24 24">
    <g stroke="currentColor" stroke-width="1.5" stroke-linecap="round" stroke-linejoin="round" fill="none">
      <rect x="3" y="5" width="18" height="12" rx="1.5"/>
      <line x1="8" y1="20" x2="16" y2="20"/>
      <line x1="12" y1="17" x2="12" y2="20"/>
      <rect x="10" y="9.5" width="4" height="3.5" rx="0.5"/>
      <path d="M10.7 9.5 V8.2 a1.3 1.3 0 0 1 2.6 0 V9.5"/>
    </g>
  </symbol>

  <symbol id="omni-cloud-deny" viewBox="0 0 24 24">
    <g stroke="currentColor" stroke-width="1.5" stroke-linecap="round" stroke-linejoin="round" fill="none">
      <path d="M6 16 H17 a4 4 0 0 0 0-8 a5 5 0 0 0-9.5 1 A3.5 3.5 0 0 0 6 16 Z"/>
      <line x1="4" y1="4" x2="20" y2="20"/>
    </g>
  </symbol>

  <symbol id="omni-attestation" viewBox="0 0 24 24">
    <g stroke="currentColor" stroke-width="1.5" stroke-linecap="round" stroke-linejoin="round" fill="none">
      <path d="M12 3 L20 6 V12 a9 9 0 0 1-8 9 a9 9 0 0 1-8-9 V6 Z"/>
      <path d="M8.5 12 L11 14.5 L16 9.5"/>
    </g>
  </symbol>

  <symbol id="omni-tee" viewBox="0 0 24 24">
    <g stroke="currentColor" stroke-width="1.5" stroke-linecap="round" stroke-linejoin="round" fill="none">
      <rect x="5" y="5" width="14" height="14" rx="1.5"/>
      <line x1="9" y1="3" x2="9" y2="5"/>
      <line x1="15" y1="3" x2="15" y2="5"/>
      <line x1="9" y1="19" x2="9" y2="21"/>
      <line x1="15" y1="19" x2="15" y2="21"/>
      <line x1="3" y1="9" x2="5" y2="9"/>
      <line x1="3" y1="15" x2="5" y2="15"/>
      <line x1="19" y1="9" x2="21" y2="9"/>
      <line x1="19" y1="15" x2="21" y2="15"/>
      <path d="M12 9 L15 10 V13 a3 3 0 0 1-3 3 a3 3 0 0 1-3-3 V10 Z"/>
    </g>
  </symbol>

  <symbol id="omni-kernel" viewBox="0 0 24 24">
    <g stroke="currentColor" stroke-width="1.5" stroke-linecap="round" stroke-linejoin="round" fill="none">
      <circle cx="12" cy="12" r="9"/>
      <circle cx="12" cy="12" r="5.5"/>
      <circle cx="12" cy="12" r="2"/>
    </g>
  </symbol>

  <symbol id="omni-agent" viewBox="0 0 24 24">
    <g stroke="currentColor" stroke-width="1.5" stroke-linecap="round" stroke-linejoin="round" fill="none">
      <path d="M5 20 V18 a4 4 0 0 1 4-4 H15 a4 4 0 0 1 4 4 V20"/>
      <circle cx="12" cy="8" r="4.5"/>
      <line x1="10" y1="8" x2="14" y2="8"/>
      <line x1="12" y1="6" x2="12" y2="10"/>
    </g>
  </symbol>

  <symbol id="omni-inference" viewBox="0 0 24 24">
    <g stroke="currentColor" stroke-width="1.5" stroke-linecap="round" stroke-linejoin="round" fill="none">
      <rect x="9" y="6" width="6" height="12" rx="0.75"/>
      <line x1="3" y1="9" x2="9" y2="9"/>
      <line x1="3" y1="12" x2="9" y2="12"/>
      <line x1="3" y1="15" x2="9" y2="15"/>
      <line x1="15" y1="12" x2="21" y2="12"/>
      <polyline points="18.5 9.5 21 12 18.5 14.5"/>
    </g>
  </symbol>

  <symbol id="omni-encryption" viewBox="0 0 24 24">
    <g stroke="currentColor" stroke-width="1.5" stroke-linecap="round" stroke-linejoin="round" fill="none">
      <rect x="3" y="6" width="18" height="12" rx="1"/>
      <polyline points="3 7 12 13 21 7"/>
      <circle cx="17" cy="17" r="2.5"/>
      <line x1="17" y1="14.5" x2="17" y2="11"/>
      <line x1="17" y1="12" x2="19" y2="12"/>
    </g>
  </symbol>

  <symbol id="omni-mesh-route" viewBox="0 0 24 24">
    <g stroke="currentColor" stroke-width="1.5" stroke-linecap="round" stroke-linejoin="round" fill="none">
      <circle cx="4" cy="12" r="2"/>
      <circle cx="12" cy="6" r="2"/>
      <circle cx="20" cy="12" r="2"/>
      <circle cx="12" cy="18" r="2"/>
      <path d="M6 12 L10 7"/>
      <path d="M14 7 L18 12"/>
      <path d="M18 13 L14 17"/>
    </g>
  </symbol>

  <symbol id="omni-governance" viewBox="0 0 24 24">
    <g stroke="currentColor" stroke-width="1.5" stroke-linecap="round" stroke-linejoin="round" fill="none">
      <polygon points="3 7 12 3 21 7"/>
      <line x1="3" y1="9" x2="21" y2="9"/>
      <line x1="6" y1="9" x2="6" y2="18"/>
      <line x1="12" y1="9" x2="12" y2="18"/>
      <line x1="18" y1="9" x2="18" y2="18"/>
      <line x1="3" y1="20" x2="21" y2="20"/>
    </g>
  </symbol>

  <symbol id="omni-fork" viewBox="0 0 24 24">
    <g stroke="currentColor" stroke-width="1.5" stroke-linecap="round" stroke-linejoin="round" fill="none">
      <circle cx="6" cy="5" r="2"/>
      <circle cx="6" cy="19" r="2"/>
      <circle cx="18" cy="9" r="2"/>
      <line x1="6" y1="7" x2="6" y2="17"/>
      <path d="M6 11 Q 6 9 8 9 L16 9"/>
    </g>
  </symbol>

  <symbol id="omni-oip" viewBox="0 0 24 24">
    <g stroke="currentColor" stroke-width="1.5" stroke-linecap="round" stroke-linejoin="round" fill="none">
      <path d="M6 3 H14 L18 7 V21 H6 Z"/>
      <polyline points="14 3 14 7 18 7"/>
      <line x1="8.5" y1="11.5" x2="14.5" y2="11.5"/>
      <line x1="8.5" y1="14.5" x2="14.5" y2="14.5"/>
      <path d="M8.5 17.5 Q 10 16 11.5 17.5 T 14.5 17.5"/>
    </g>
  </symbol>

  <symbol id="omni-zk" viewBox="0 0 24 24">
    <g stroke="currentColor" stroke-width="1.5" stroke-linecap="round" stroke-linejoin="round" fill="none">
      <path d="M2 12 Q 7 5 12 5 Q 17 5 22 12 Q 17 19 12 19 Q 7 19 2 12 Z"/>
      <circle cx="12" cy="12" r="2.5"/>
      <line x1="4" y1="4" x2="20" y2="20"/>
    </g>
  </symbol>

  <symbol id="omni-anchor" viewBox="0 0 24 24">
    <g stroke="currentColor" stroke-width="1.5" stroke-linecap="round" stroke-linejoin="round" fill="none">
      <circle cx="12" cy="5" r="2"/>
      <line x1="12" y1="7" x2="12" y2="20"/>
      <line x1="9" y1="10" x2="15" y2="10"/>
      <path d="M5 14 Q 5 20 12 20 Q 19 20 19 14"/>
      <line x1="3" y1="14" x2="7" y2="14"/>
      <line x1="17" y1="14" x2="21" y2="14"/>
    </g>
  </symbol>

</svg>
